<svg style="position: absolute; width: 0; height: 0;" width="0" height="0" version="1.1" xmlns="http://www.w3.org/2000/svg" xmlns:xlink="http://www.w3.org/1999/xlink">
	<defs>

		<symbol id="icon_close" viewBox="0 0 1024 1024">
			<title>close</title>
			<path class="path1" d="M810 274l-238 238 238 238-60 60-238-238-238 238-60-60 238-238-238-238 60-60 238 238 238-238z"></path>
		</symbol>

		<symbol id="icon_error" viewBox="0 0 1024 1024">
			<title>error</title>
			<path class="path1" d="M512 854q140 0 241-101t101-241-101-241-241-101-241 101-101 241 101 241 241 101zM512 86q176 0 301 125t125 301-125 301-301 125-301-125-125-301 125-301 301-125zM470 298h84v256h-84v-256zM470 640h84v86h-84v-86z"></path>
		</symbol>

        <symbol id="icon-pin-1" viewBox="0 0 20 32">
            <title>pin-1</title>
            <path class="path1" fill="#eaeaea" d="M19.466 29.341c0 1.049-4.251 1.899-9.496 1.899s-9.496-0.85-9.496-1.899c0-1.049 4.251-1.899 9.496-1.899s9.496 0.85 9.496 1.899z"></path>
            <path class="path2" fill="#f7941d" d="M17.567 8.451c0 4.195-3.401 7.596-7.596 7.596s-7.596-3.401-7.596-7.596c0-4.195 3.401-7.596 7.596-7.596s7.596 3.401 7.596 7.596z"></path>
            <path class="path3" fill="#000" opacity="0.15" d="M9.97 14.148c-2.849 0-5.507-1.329-7.217-3.323 0.95 3.039 3.893 5.223 7.217 5.223s6.267-2.184 7.217-5.223c-1.709 1.994-4.368 3.323-7.217 3.323z"></path>
            <path class="path4" fill="#434854" d="M9.97 16.047c-0.285 0-0.665 0-0.95-0.095v12.439c0 0.57 0.38 0.95 0.95 0.95s0.95-0.38 0.95-0.95v-12.439c-0.285 0-0.665 0.095-0.95 0.095z"></path>
        </symbol>
        <symbol id="icon-pin-2" viewBox="0 0 20 32">
            <title>pin-2</title>
            <path class="path1" fill="#eaeaea" d="M19.466 29.246c0 1.049-4.251 1.899-9.496 1.899s-9.496-0.85-9.496-1.899c0-1.049 4.251-1.899 9.496-1.899s9.496 0.85 9.496 1.899z"></path>
            <path class="path2" fill="#f20000" d="M17.567 8.356c0 4.195-3.401 7.596-7.596 7.596s-7.596-3.401-7.596-7.596c0-4.195 3.401-7.596 7.596-7.596s7.596 3.401 7.596 7.596z"></path>
            <path class="path3" fill="#000" opacity="0.15" d="M9.97 14.053c-2.849 0-5.507-1.329-7.217-3.323 0.95 3.039 3.893 5.223 7.217 5.223s6.267-2.184 7.217-5.223c-1.709 2.089-4.368 3.323-7.217 3.323z"></path>
            <path class="path4" fill="#434854" d="M9.97 15.953c-0.285 0-0.665 0-0.95-0.095v12.439c0 0.57 0.38 0.95 0.95 0.95s0.95-0.38 0.95-0.95v-12.344c-0.285 0-0.665 0-0.95 0z"></path>
        </symbol>
        <symbol id="icon-pin-3" viewBox="0 0 20 32">
            <title>pin-3</title>
            <path class="path1" fill="#eaeaea" d="M19.466 29.246c0 1.049-4.251 1.899-9.496 1.899s-9.496-0.85-9.496-1.899c0-1.049 4.251-1.899 9.496-1.899s9.496 0.85 9.496 1.899z"></path>
            <path class="path2" fill="#00d8ea" d="M17.567 8.356c0 4.195-3.401 7.596-7.596 7.596s-7.596-3.401-7.596-7.596c0-4.195 3.401-7.596 7.596-7.596s7.596 3.401 7.596 7.596z"></path>
            <path class="path3" fill="#000" opacity="0.15" d="M9.97 14.053c-2.849 0-5.507-1.329-7.217-3.323 0.95 3.039 3.893 5.223 7.217 5.223s6.267-2.184 7.217-5.223c-1.709 2.089-4.368 3.323-7.217 3.323z"></path>
            <path class="path4" fill="#434854" d="M9.97 15.953c-0.285 0-0.665 0-0.95-0.095v12.439c0 0.57 0.38 0.95 0.95 0.95s0.95-0.38 0.95-0.95v-12.344c-0.285 0-0.665 0-0.95 0z"></path>
        </symbol>
        <symbol id="icon-pin-4" viewBox="0 0 20 32">
            <title>pin-4</title>
            <path class="path1" fill="#eaeaea" d="M19.466 29.626c0 1.049-4.251 1.899-9.496 1.899s-9.496-0.85-9.496-1.899c0-1.049 4.251-1.899 9.496-1.899s9.496 0.85 9.496 1.899z"></path>
            <path class="path2" fill="#05aa00" d="M17.567 8.736c0 4.195-3.401 7.596-7.596 7.596s-7.596-3.401-7.596-7.596c0-4.195 3.401-7.596 7.596-7.596s7.596 3.401 7.596 7.596z"></path>
            <path class="path3" fill="#000" opacity="0.15" d="M9.97 14.433c-2.849 0-5.507-1.329-7.217-3.323 0.95 3.039 3.893 5.223 7.217 5.223s6.267-2.184 7.217-5.223c-1.709 1.994-4.368 3.323-7.217 3.323z"></path>
            <path class="path4" fill="#434854" d="M9.97 16.332c-0.285 0-0.665 0-0.95-0.095v12.439c0 0.57 0.38 0.95 0.95 0.95s0.95-0.38 0.95-0.95v-12.439c-0.285 0-0.665 0.095-0.95 0.095z"></path>
        </symbol>
        <symbol id="icon-pin-5" viewBox="0 0 20 32">
            <title>pin-5</title>
            <path class="path1" fill="#eaeaea" d="M19.466 29.626c0 1.049-4.251 1.899-9.496 1.899s-9.496-0.85-9.496-1.899c0-1.049 4.251-1.899 9.496-1.899s9.496 0.85 9.496 1.899z"></path>
            <path class="path2" fill="#0d41ab" d="M17.567 8.736c0 4.195-3.401 7.596-7.596 7.596s-7.596-3.401-7.596-7.596c0-4.195 3.401-7.596 7.596-7.596s7.596 3.401 7.596 7.596z"></path>
            <path class="path3" fill="#000" opacity="0.15" d="M9.97 14.433c-2.849 0-5.507-1.329-7.217-3.323 0.95 3.039 3.893 5.223 7.217 5.223s6.267-2.184 7.217-5.223c-1.709 1.994-4.368 3.323-7.217 3.323z"></path>
            <path class="path4" fill="#434854" d="M9.97 16.332c-0.285 0-0.665 0-0.95-0.095v12.439c0 0.57 0.38 0.95 0.95 0.95s0.95-0.38 0.95-0.95v-12.439c-0.285 0-0.665 0.095-0.95 0.095z"></path>
        </symbol>

        <symbol id="icon-paper-plane" viewBox="0 0 32 32">
            <title>paper-plane</title>
            <path class="path1" d="M31.5 0.196q0.589 0.429 0.482 1.143l-4.571 27.429q-0.089 0.518-0.571 0.804-0.25 0.143-0.554 0.143-0.196 0-0.429-0.089l-8.089-3.304-4.321 5.268q-0.321 0.411-0.875 0.411-0.232 0-0.393-0.071-0.339-0.125-0.545-0.42t-0.205-0.652v-6.232l15.429-18.911-19.089 16.518-7.054-2.893q-0.661-0.25-0.714-0.982-0.036-0.714 0.571-1.054l29.714-17.143q0.268-0.161 0.571-0.161 0.357 0 0.643 0.196z"></path>
        </symbol>

        <symbol id="icon-location-arrow" viewBox="0 0 25 32">
            <title>location-arrow</title>
            <path class="path1" d="M25.018 6.232l-11.429 22.857q-0.304 0.625-1.018 0.625-0.089 0-0.268-0.036-0.393-0.089-0.634-0.402t-0.241-0.705v-10.286h-10.286q-0.393 0-0.705-0.241t-0.402-0.634 0.071-0.75 0.518-0.536l22.857-11.429q0.232-0.125 0.518-0.125 0.482 0 0.804 0.339 0.268 0.25 0.33 0.616t-0.116 0.705z"></path>
        </symbol>

        <symbol id="icon-menu" viewBox="0 0 24 24">
            <title>menu</title>
            <path class="path1" d="M3 6h18v2.016h-18v-2.016zM3 12.984v-1.969h18v1.969h-18zM3 18v-2.016h18v2.016h-18z"></path>
        </symbol>

        <symbol id="icon-volume-control-phone" viewBox="0 0 25 32">
            <title>volume-control-phone</title>
            <path class="path1" d="M11.018 30.161q0-0.196-0.232-1.036t-0.554-1.911-0.357-1.232q-0.018-0.071-0.089-0.473t-0.152-0.643-0.241-0.384q-0.268-0.25-0.911-0.25-0.411 0-1.25 0.098t-1.268 0.098q-0.607 0-0.839-0.196-0.107-0.089-0.196-0.277t-0.134-0.357-0.116-0.429-0.089-0.33q-0.661-2.286-0.661-4.554t0.661-4.554q0.018-0.071 0.089-0.33t0.116-0.429 0.134-0.357 0.196-0.277q0.232-0.196 0.839-0.196 0.429 0 1.268 0.098t1.25 0.098q0.643 0 0.911-0.25 0.161-0.143 0.241-0.384t0.152-0.643 0.089-0.473q0.036-0.161 0.357-1.232t0.554-1.911 0.232-1.036q0-0.393-0.777-0.938t-1.348-0.759q-0.357-0.143-0.804-0.143-0.607 0-1.75 0.321-1.018 0.304-1.723 0.723t-1.268 1.179-0.821 1.25-0.813 1.688q-0.107 0.214-0.161 0.339-0.875 1.911-1.214 3.857t-0.339 4.357 0.339 4.357 1.214 3.857q1 2.179 1.482 2.875 1.125 1.625 3.196 2.268l0.107 0.036q1.143 0.321 1.75 0.321 0.446 0 0.804-0.143 0.571-0.214 1.348-0.759t0.777-0.938zM13.857 13.857q-0.464 0-0.804-0.339t-0.339-0.813 0.339-0.813q0.661-0.661 0.661-1.607 0-0.929-0.661-1.625-0.339-0.339-0.339-0.804t0.339-0.804 0.804-0.339 0.804 0.339q1.339 1.339 1.339 3.232t-1.339 3.232q-0.375 0.339-0.804 0.339zM17.089 17.089q-0.482 0-0.804-0.339-0.339-0.339-0.339-0.804t0.339-0.804q2-2.036 2-4.857t-2-4.857q-0.339-0.339-0.339-0.804t0.339-0.804 0.804-0.339 0.804 0.339q2.679 2.679 2.679 6.464t-2.679 6.464q-0.321 0.339-0.804 0.339zM20.321 20.321q-0.482 0-0.804-0.339-0.339-0.339-0.339-0.804t0.339-0.804q1.607-1.625 2.473-3.714t0.866-4.375-0.866-4.375-2.473-3.714q-0.339-0.339-0.339-0.804t0.339-0.804 0.804-0.339 0.804 0.339q1.946 1.946 2.982 4.446t1.036 5.25-1.036 5.25-2.982 4.446q-0.321 0.339-0.804 0.339z"></path>
        </symbol>
        <symbol id="icon-location" viewBox="0 0 32 32">
            <title>location</title>
            <path class="path1" d="M15.938 32c0 0-9.938-14.062-9.938-20.062 0-11.813 9.938-11.938 9.938-11.938s10.062 0.125 10.062 11.875c0 6.187-10.062 20.125-10.062 20.125zM16 6c-2.209 0-4 1.791-4 4s1.791 4 4 4 4-1.791 4-4-1.791-4-4-4z"></path>
        </symbol>
        <symbol id="icon-star" viewBox="0 0 30 32">
            <title>star</title>
            <path class="path1" d="M29.714 11.554q0 0.393-0.464 0.857l-6.482 6.321 1.536 8.929q0.018 0.125 0.018 0.357 0 0.375-0.188 0.634t-0.545 0.259q-0.339 0-0.714-0.214l-8.018-4.214-8.018 4.214q-0.393 0.214-0.714 0.214-0.375 0-0.563-0.259t-0.188-0.634q0-0.107 0.036-0.357l1.536-8.929-6.5-6.321q-0.446-0.482-0.446-0.857 0-0.661 1-0.821l8.964-1.304 4.018-8.125q0.339-0.732 0.875-0.732t0.875 0.732l4.018 8.125 8.964 1.304q1 0.161 1 0.821z"></path>
        </symbol>
        <symbol id="icon-angle-double-right" viewBox="0 0 18 32">
            <title>angle-double-right</title>
            <path class="path1" d="M10.625 17.143q0 0.232-0.179 0.411l-8.321 8.321q-0.179 0.179-0.411 0.179t-0.411-0.179l-0.893-0.893q-0.179-0.179-0.179-0.411t0.179-0.411l7.018-7.018-7.018-7.018q-0.179-0.179-0.179-0.411t0.179-0.411l0.893-0.893q0.179-0.179 0.411-0.179t0.411 0.179l8.321 8.321q0.179 0.179 0.179 0.411zM17.482 17.143q0 0.232-0.179 0.411l-8.321 8.321q-0.179 0.179-0.411 0.179t-0.411-0.179l-0.893-0.893q-0.179-0.179-0.179-0.411t0.179-0.411l7.018-7.018-7.018-7.018q-0.179-0.179-0.179-0.411t0.179-0.411l0.893-0.893q0.179-0.179 0.411-0.179t0.411 0.179l8.321 8.321q0.179 0.179 0.179 0.411z"></path>
        </symbol>

	</defs>
</svg>
